<?xml version="1.0" standalone="no"?>
<!DOCTYPE svg PUBLIC "-//W3C//DTD SVG 1.1//EN" "http://www.w3.org/Graphics/SVG/1.1/DTD/svg11.dtd">
<!--Generator: Xara Designer (www.xara.com), SVG filter version: 6.2.0.0-->
<svg stroke-width="0.501" stroke-linejoin="bevel" fill-rule="evenodd" xmlns:xlink="http://www.w3.org/1999/xlink" xmlns="http://www.w3.org/2000/svg" version="1.1" overflow="visible" width="249.84pt" height="65.52pt" viewBox="0 0 249.84 65.52">
 <defs>
	</defs>
 <g id="Document" fill="none" stroke="black" font-family="Times New Roman" font-size="16" transform="scale(1 -1)">
  <g id="Spread" transform="translate(0 -65.52)">
   <g id="Layer 1">
    <g id="Group" stroke="none">
     <g id="Group_1" stroke-linejoin="miter" stroke-miterlimit="79.8403193612775">
      <path d="M 3.818,48.013 C 12.277,63.95 32.078,70.018 48.012,61.557 C 63.949,53.098 70.017,33.297 61.555,17.363 C 53.097,1.426 33.299,-4.642 17.361,3.819 C 1.427,12.278 -4.64,32.079 3.818,48.013 Z" fill="#18bbbb" stroke-width="1" marker-start="none" marker-end="none" stroke-miterlimit="19.9600798403194"/>
      <path d="M 47.02,15.887 C 34.861,14.678 24.02,23.552 22.808,35.714 C 21.861,45.218 27.079,53.915 35.208,57.841 C 33.711,57.957 32.185,57.954 30.637,57.799 C 16.536,56.395 6.242,43.823 7.647,29.721 C 9.051,15.616 21.62,5.322 35.725,6.727 C 43.67,7.52 50.406,11.853 54.522,18.007 C 52.229,16.893 49.705,16.154 47.02,15.887 Z" fill="#ffffff" stroke-width="2" marker-start="none" marker-end="none" stroke-miterlimit="19.9600798403194"/>
     </g>
     <g id="Group_2" fill-rule="nonzero" stroke-linejoin="round" stroke-linecap="round" stroke-width="0.375" fill="#ffffff" stroke-miterlimit="79.8403193612775">
      <g id="Group_3">
       <path d="M 120.276,6.662 C 118.208,6.665 115.512,6.712 112.188,6.807 C 107.855,6.902 105.158,6.962 104.098,6.988 L 93.299,7.131 C 92.215,7.107 90.661,7.155 88.639,7.277 C 87.941,7.395 87.59,7.77 87.593,8.396 C 87.59,11.019 87.635,14.951 87.718,20.187 C 87.801,25.423 87.846,29.356 87.846,31.981 C 87.846,34.773 87.76,38.955 87.593,44.529 C 87.424,50.104 87.338,54.286 87.338,57.078 C 87.338,57.609 87.7,57.874 88.422,57.874 C 89.147,57.874 90.225,57.838 91.656,57.764 C 93.088,57.693 94.154,57.657 94.852,57.657 C 95.645,57.657 96.827,57.699 98.389,57.785 C 99.958,57.868 101.137,57.909 101.93,57.909 C 102.292,57.909 102.461,57.681 102.438,57.223 L 102.399,56.754 C 102.111,52.228 101.787,45.426 101.425,36.35 L 101.389,26.816 C 101.389,23.733 101.401,21.482 101.425,20.059 C 101.449,19.771 101.472,19.483 101.496,19.195 C 101.52,18.904 101.701,18.723 102.04,18.652 C 102.063,18.652 102.375,18.652 102.978,18.652 C 105.143,18.652 108.389,18.768 112.711,18.996 C 117.032,19.225 120.276,19.338 122.444,19.338 C 123.094,19.338 123.418,19.062 123.421,18.509 C 123.418,14.393 123.118,10.841 122.518,7.856 C 122.396,7.229 122.144,6.855 121.758,6.736 C 121.636,6.686 121.146,6.665 120.276,6.662 Z" marker-start="none" marker-end="none"/>
       <path d="M 164.446,40.104 C 164.446,38.322 164.362,35.652 164.193,32.088 C 164.024,28.524 163.941,25.851 163.941,24.069 C 163.941,22.335 164,19.736 164.122,16.27 C 164.241,12.801 164.303,10.214 164.303,8.503 C 164.303,7.853 164,7.446 163.4,7.277 C 162.485,7.036 160.546,6.914 157.585,6.914 C 154.959,6.914 153.13,6.988 152.096,7.131 C 151.636,7.205 151.348,7.493 151.229,7.998 C 151.158,8.72 151.083,9.445 151.012,10.166 C 150.89,11.274 150.721,11.827 150.507,11.827 C 150.843,11.827 149.628,11.01 146.857,9.37 C 144.089,7.734 141.573,6.914 139.31,6.914 C 132.928,6.914 129.15,9.792 127.971,15.548 C 127.439,18.221 127.175,22.097 127.175,27.176 C 127.175,32.667 127.62,37 128.511,40.178 C 128.776,41.164 129.269,41.657 129.993,41.657 C 131.098,41.657 132.785,41.649 135.048,41.622 C 137.312,41.598 138.996,41.586 140.103,41.586 C 140.852,41.586 141.223,41.274 141.223,40.648 C 141.223,40.478 141.199,40.226 141.152,39.887 C 140.647,36.614 140.394,33.294 140.394,29.92 C 140.394,25.732 140.525,22.866 140.792,21.325 C 141.223,18.675 142.8,17.354 145.521,17.354 C 146.581,17.354 147.73,17.823 148.972,18.762 C 150.21,19.7 150.855,20.674 150.902,21.687 C 150.95,22.578 150.977,28.622 150.977,39.816 C 150.977,40.612 151.036,41.081 151.158,41.224 C 151.3,41.467 151.734,41.586 152.456,41.586 C 153.635,41.586 155.414,41.574 157.784,41.551 C 160.154,41.527 161.93,41.515 163.109,41.515 C 163.831,41.515 164.253,41.334 164.374,40.971 C 164.422,40.781 164.446,40.49 164.446,40.104 Z" marker-start="none" marker-end="none"/>
       <path d="M 206.305,8.325 C 206.305,7.675 205.966,7.3 205.292,7.205 C 204.621,7.107 202.863,7.06 200.02,7.06 C 196.988,7.06 195.108,7.131 194.386,7.277 C 193.665,7.422 193.305,7.915 193.302,8.756 C 193.305,9.887 193.341,11.598 193.412,13.885 C 193.483,16.175 193.519,17.894 193.519,19.05 C 193.519,19.941 193.495,21.271 193.448,23.041 C 193.4,24.809 193.377,26.139 193.377,27.03 C 193.377,30.33 191.942,31.981 189.076,31.981 C 188.137,31.981 187.041,31.568 185.791,30.752 C 184.443,29.837 183.769,28.934 183.769,28.043 L 183.769,8.539 C 183.769,7.746 183.394,7.3 182.649,7.205 C 181.805,7.107 180.086,7.06 177.484,7.06 C 174.668,7.06 172.839,7.131 171.995,7.277 C 171.25,7.395 170.876,7.793 170.876,8.468 C 170.876,10.348 170.888,13.175 170.911,16.956 C 170.935,20.737 170.947,23.576 170.947,25.48 C 170.947,31.473 170.478,36.181 169.539,39.599 C 169.492,39.816 169.468,39.997 169.468,40.14 C 169.468,40.526 169.649,40.79 170.008,40.936 C 171.526,41.105 173.549,41.369 176.076,41.732 C 179.905,42.477 182.061,42.851 182.542,42.851 C 182.806,42.851 183.011,42.038 183.154,40.413 C 183.299,38.785 183.504,37.975 183.769,37.975 C 183.504,37.975 184.799,38.809 187.65,40.484 C 190.505,42.159 193.002,42.994 195.144,42.994 C 198.203,42.994 200.754,42.272 202.8,40.829 C 205.09,39.166 206.234,36.855 206.234,33.894 L 206.234,22.373 C 206.234,20.808 206.246,18.465 206.269,15.346 C 206.293,12.231 206.305,9.887 206.305,8.325 Z" marker-start="none" marker-end="none"/>
       <path d="M 248.631,25.334 C 248.631,23.478 248.741,20.722 248.957,17.063 C 249.174,13.404 249.281,10.659 249.281,8.83 C 249.281,7.865 248.862,7.348 248.019,7.277 C 245.031,7.06 241.613,6.953 237.76,6.953 C 237.303,6.953 236.997,7.642 236.84,9.029 C 236.682,10.413 236.498,11.117 236.281,11.141 C 236.088,11.043 235.836,10.841 235.524,10.526 C 232.827,7.808 229.937,6.445 226.855,6.445 C 222.159,6.445 218.271,8.298 215.188,12.008 C 212.278,15.474 210.819,19.614 210.819,24.431 C 210.819,29.991 212.325,34.473 215.334,37.865 C 218.464,41.381 222.75,43.139 228.191,43.139 C 231.972,43.139 234.957,41.815 237.149,39.166 C 237.244,39.047 237.33,38.984 237.401,38.984 C 237.618,38.984 237.864,39.57 238.141,40.737 C 238.417,41.904 238.749,42.489 239.133,42.489 C 240.024,42.489 241.722,42.237 244.226,41.732 C 246.611,41.251 248.319,40.841 249.355,40.502 C 249.715,40.357 249.896,40.167 249.896,39.926 C 249.896,39.828 249.86,39.575 249.789,39.166 C 249.017,34.809 248.631,30.196 248.631,25.334 Z M 237.003,25.117 C 237.003,27.164 236.359,28.857 235.07,30.193 C 233.784,31.53 232.103,32.198 230.032,32.198 C 227.962,32.198 226.287,31.533 225.013,30.208 C 223.736,28.886 223.097,27.188 223.097,25.117 C 223.097,23.166 223.775,21.494 225.12,20.098 C 226.471,18.699 228.108,18.001 230.032,18.001 C 232.079,18.001 233.751,18.672 235.055,20.006 C 236.353,21.343 237.003,23.047 237.003,25.117 Z" marker-start="none" marker-end="none"/>
      </g>
     </g>
    </g>
   </g>
  </g>
 </g>
</svg>
